HIERARCHY
ROOT Hips
{
	OFFSET 0.000000 87.230942 0.000000
	CHANNELS 6 Xposition Yposition Zposition Xrotation Yrotation Zrotation
	JOINT Pelvis
	{
		OFFSET 0.000000 0.000000 0.000000
		CHANNELS 3 Xrotation Yrotation Zrotation
		JOINT LeftUpLeg
		{
			OFFSET 12.017000 -9.376404 -2.439400
			CHANNELS 3 Xrotation Yrotation Zrotation
			JOINT LeftLeg
			{
				OFFSET -0.007312 -32.846973 2.110600
				CHANNELS 3 Xrotation Yrotation Zrotation
				JOINT LeftFoot
				{
					OFFSET 0.007312 -32.065170 -0.570400
					CHANNELS 3 Xrotation Yrotation Zrotation
					JOINT LeftToeBase
					{
						OFFSET 0.728300 -11.045900 13.180700
						CHANNELS 3 Xrotation Yrotation Zrotation
						End Site
						{
							OFFSET 0.000000 17.212589 0.000000
						}
					}
				}
				JOINT LeftPantLeg
				{
					OFFSET 0.002788 -16.709013 -3.143600
					CHANNELS 3 Xrotation Yrotation Zrotation
					End Site
					{
						OFFSET -0.605125 24.528742 0.000000
					}
				}
			}
			JOINT Left_Butt
			{
				OFFSET -6.630234 1.326584 -3.183700
				CHANNELS 3 Xrotation Yrotation Zrotation
				End Site
				{
					OFFSET -0.498041 20.188049 0.000000
				}
			}
		}
		JOINT RightUpLeg
		{
			OFFSET -11.717000 -9.376404 -2.439400
			CHANNELS 3 Xrotation Yrotation Zrotation
			JOINT RightLeg
			{
				OFFSET -0.003241 -32.846912 2.110600
				CHANNELS 3 Xrotation Yrotation Zrotation
				JOINT RightFoot
				{
					OFFSET 0.003241 -32.065136 -0.570500
					CHANNELS 3 Xrotation Yrotation Zrotation
					JOINT RightToeBase
					{
						OFFSET -0.728300 -11.045901 13.180700
						CHANNELS 3 Xrotation Yrotation Zrotation
						End Site
						{
							OFFSET 0.000000 17.212593 0.000000
						}
					}
				}
				JOINT RightPantLeg
				{
					OFFSET 0.008142 -16.708982 -3.143700
					CHANNELS 3 Xrotation Yrotation Zrotation
					End Site
					{
						OFFSET 0.605088 24.528715 0.000000
					}
				}
			}
			JOINT Right_Butt
			{
				OFFSET 6.630732 1.326584 -3.183700
				CHANNELS 3 Xrotation Yrotation Zrotation
				End Site
				{
					OFFSET 0.498015 20.188240 0.000000
				}
			}
		}
	}
	JOINT Spine
	{
		OFFSET -0.062400 7.848404 3.918300
		CHANNELS 3 Xrotation Yrotation Zrotation
		JOINT Spine1
		{
			OFFSET -0.072800 11.422302 0.713400
			CHANNELS 3 Xrotation Yrotation Zrotation
			JOINT Spine2
			{
				OFFSET -0.083200 13.054001 -1.931600
				CHANNELS 3 Xrotation Yrotation Zrotation
				JOINT Neck
				{
					OFFSET -0.092200 14.121796 -5.138800
					CHANNELS 3 Xrotation Yrotation Zrotation
					JOINT Head
					{
						OFFSET 0.000200 10.447403 -0.842000
						CHANNELS 3 Xrotation Yrotation Zrotation
						JOINT Visor
						{
							OFFSET 0.457100 25.671204 16.550400
							CHANNELS 3 Xrotation Yrotation Zrotation
							End Site
							{
								OFFSET 0.000000 26.061493 0.000000
							}
						}
						JOINT HairMidA
						{
							OFFSET 0.459400 31.585403 8.437400
							CHANNELS 3 Xrotation Yrotation Zrotation
							End Site
							{
								OFFSET 0.000000 26.061493 0.000000
							}
						}
						JOINT HairMidB
						{
							OFFSET 0.464000 33.309204 -8.389700
							CHANNELS 3 Xrotation Yrotation Zrotation
							End Site
							{
								OFFSET 0.000000 26.061493 0.000000
							}
						}
						JOINT HairMidC
						{
							OFFSET 0.466600 27.991196 -17.375099
							CHANNELS 3 Xrotation Yrotation Zrotation
							End Site
							{
								OFFSET 0.000000 26.061493 0.000000
							}
						}
						JOINT HairMidD
						{
							OFFSET 0.467700 17.888092 -21.169500
							CHANNELS 3 Xrotation Yrotation Zrotation
							End Site
							{
								OFFSET 0.000000 26.061493 0.000000
							}
						}
						JOINT HairMidE
						{
							OFFSET 5.325700 3.514603 -14.369699
							CHANNELS 3 Xrotation Yrotation Zrotation
							End Site
							{
								OFFSET 0.000000 26.061493 0.000000
							}
						}
						JOINT HairMidF
						{
							OFFSET -4.394100 3.514603 -14.372400
							CHANNELS 3 Xrotation Yrotation Zrotation
							End Site
							{
								OFFSET 0.000000 26.061493 0.000000
							}
						}
						JOINT HairLeftA
						{
							OFFSET 15.319900 25.746506 2.623300
							CHANNELS 3 Xrotation Yrotation Zrotation
							End Site
							{
								OFFSET 0.000000 26.061493 0.000000
							}
						}
						JOINT HairLeftB
						{
							OFFSET 12.619500 29.289398 -8.731499
							CHANNELS 3 Xrotation Yrotation Zrotation
							End Site
							{
								OFFSET 0.000000 26.061493 0.000000
							}
						}
						JOINT HairLeftC
						{
							OFFSET 15.714800 15.959900 2.909800
							CHANNELS 3 Xrotation Yrotation Zrotation
							End Site
							{
								OFFSET 0.000000 26.061493 0.000000
							}
						}
						JOINT HairLeftD
						{
							OFFSET 16.101700 18.437408 -7.553200
							CHANNELS 3 Xrotation Yrotation Zrotation
							End Site
							{
								OFFSET 0.000000 26.061493 0.000000
							}
						}
						JOINT HairLeftE
						{
							OFFSET 9.731900 17.915009 -18.316799
							CHANNELS 3 Xrotation Yrotation Zrotation
							End Site
							{
								OFFSET 0.000000 26.061493 0.000000
							}
						}
						JOINT HairLeftF
						{
							OFFSET 11.204300 4.953598 -9.668100
							CHANNELS 3 Xrotation Yrotation Zrotation
							End Site
							{
								OFFSET 0.000000 26.061493 0.000000
							}
						}
						JOINT HairRightA
						{
							OFFSET -14.397900 25.746307 2.615100
							CHANNELS 3 Xrotation Yrotation Zrotation
							End Site
							{
								OFFSET 0.000000 26.061493 0.000000
							}
						}
						JOINT HairRightB
						{
							OFFSET -11.691200 29.289200 -8.738199
							CHANNELS 3 Xrotation Yrotation Zrotation
							End Site
							{
								OFFSET 0.000000 26.061493 0.000000
							}
						}
						JOINT HairRightC
						{
							OFFSET -14.792900 15.959702 2.901400
							CHANNELS 3 Xrotation Yrotation Zrotation
							End Site
							{
								OFFSET 0.000000 26.061493 0.000000
							}
						}
						JOINT HairRightD
						{
							OFFSET -15.174000 18.437195 -7.561900
							CHANNELS 3 Xrotation Yrotation Zrotation
							End Site
							{
								OFFSET 0.000000 26.061493 0.000000
							}
						}
						JOINT HairRightE
						{
							OFFSET -8.798200 17.914902 -18.322001
							CHANNELS 3 Xrotation Yrotation Zrotation
							End Site
							{
								OFFSET 0.000000 26.061493 0.000000
							}
						}
						JOINT HairRightF
						{
							OFFSET -10.275200 4.953506 -9.674099
							CHANNELS 3 Xrotation Yrotation Zrotation
							End Site
							{
								OFFSET 0.000000 26.061493 0.000000
							}
						}
					}
				}
				JOINT LeftShoulder
				{
					OFFSET 5.133500 7.341202 -1.867600
					CHANNELS 3 Xrotation Yrotation Zrotation
					JOINT LeftArm
					{
						OFFSET 8.072663 0.936867 -2.176600
						CHANNELS 3 Xrotation Yrotation Zrotation
						JOINT LeftForeArm
						{
							OFFSET 31.271999 0.000000 0.000000
							CHANNELS 3 Xrotation Yrotation Zrotation
							JOINT LeftHand
							{
								OFFSET 31.771030 0.000000 0.000000
								CHANNELS 3 Xrotation Yrotation Zrotation
								JOINT LeftHandThumb1
								{
									OFFSET 2.886520 -2.557846 4.416640
									CHANNELS 3 Xrotation Yrotation Zrotation
									JOINT LeftHandThumb2
									{
										OFFSET 2.371025 -1.368912 1.368911
										CHANNELS 3 Xrotation Yrotation Zrotation
										JOINT LeftHandThumb3
										{
											OFFSET 2.243378 -1.295212 1.295213
											CHANNELS 3 Xrotation Yrotation Zrotation
											End Site
											{
												OFFSET -0.332611 2.876945 0.020015
											}
										}
									}
								}
								JOINT LeftHandIndex1
								{
									OFFSET 8.568985 -0.641945 3.119977
									CHANNELS 3 Xrotation Yrotation Zrotation
									JOINT LeftHandIndex2
									{
										OFFSET 3.348503 0.000000 0.000000
										CHANNELS 3 Xrotation Yrotation Zrotation
										JOINT LeftHandIndex3
										{
											OFFSET 3.314552 0.000000 0.000000
											CHANNELS 3 Xrotation Yrotation Zrotation
											End Site
											{
												OFFSET -1.032898 3.075485 0.678796
											}
										}
									}
								}
								JOINT LeftHandMiddle1
								{
									OFFSET 8.124603 0.000000 0.000000
									CHANNELS 3 Xrotation Yrotation Zrotation
									JOINT LeftHandMiddle2
									{
										OFFSET 4.166275 0.000000 0.000000
										CHANNELS 3 Xrotation Yrotation Zrotation
										JOINT LeftHandMiddle3
										{
											OFFSET 3.018135 0.000000 0.000000
											CHANNELS 3 Xrotation Yrotation Zrotation
											End Site
											{
												OFFSET -1.032700 2.767982 0.617226
											}
										}
									}
								}
								JOINT LeftHandRing1
								{
									OFFSET 8.571686 -0.031357 -2.884048
									CHANNELS 3 Xrotation Yrotation Zrotation
									JOINT LeftHandRing2
									{
										OFFSET 3.671181 0.000000 0.000000
										CHANNELS 3 Xrotation Yrotation Zrotation
										JOINT LeftHandRing3
										{
											OFFSET 2.728851 0.000000 0.000000
											CHANNELS 3 Xrotation Yrotation Zrotation
											End Site
											{
												OFFSET -0.815796 2.539223 0.577389
											}
										}
									}
								}
								JOINT LeftHandPinky1
								{
									OFFSET 7.854515 -0.675232 -5.213020
									CHANNELS 3 Xrotation Yrotation Zrotation
									JOINT LeftHandPinky2
									{
										OFFSET 3.068596 0.000000 0.000000
										CHANNELS 3 Xrotation Yrotation Zrotation
										JOINT LeftHandPinky3
										{
											OFFSET 2.396042 0.000000 0.000000
											CHANNELS 3 Xrotation Yrotation Zrotation
											End Site
											{
												OFFSET -0.524597 2.267998 0.567429
											}
										}
									}
								}
							}
							JOINT LeftSleeve
							{
								OFFSET 19.684509 -0.200119 0.476146
								CHANNELS 3 Xrotation Yrotation Zrotation
								End Site
								{
									OFFSET -0.031017 25.731133 -0.002868
								}
							}
						}
					}
				}
				JOINT RightShoulder
				{
					OFFSET -4.395900 7.341202 -1.870200
					CHANNELS 3 Xrotation Yrotation Zrotation
					JOINT RightArm
					{
						OFFSET -8.071453 0.936867 -2.181100
						CHANNELS 3 Xrotation Yrotation Zrotation
						JOINT RightForeArm
						{
							OFFSET -31.272011 0.000000 0.000000
							CHANNELS 3 Xrotation Yrotation Zrotation
							JOINT RightHand
							{
								OFFSET -31.771019 0.000000 0.000000
								CHANNELS 3 Xrotation Yrotation Zrotation
								JOINT RightHandThumb1
								{
									OFFSET -2.886520 -2.557808 4.416626
									CHANNELS 3 Xrotation Yrotation Zrotation
									JOINT RightHandThumb2
									{
										OFFSET -2.371056 -1.368927 1.368928
										CHANNELS 3 Xrotation Yrotation Zrotation
										JOINT RightHandThumb3
										{
											OFFSET -2.243362 -1.295204 1.295206
											CHANNELS 3 Xrotation Yrotation Zrotation
											End Site
											{
												OFFSET 0.332642 2.876938 0.020047
											}
										}
									}
								}
								JOINT RightHandIndex1
								{
									OFFSET -8.568993 -0.641953 3.120017
									CHANNELS 3 Xrotation Yrotation Zrotation
									JOINT RightHandIndex2
									{
										OFFSET -3.348518 0.000000 0.000000
										CHANNELS 3 Xrotation Yrotation Zrotation
										JOINT RightHandIndex3
										{
											OFFSET -3.314552 0.000000 0.000000
											CHANNELS 3 Xrotation Yrotation Zrotation
											End Site
											{
												OFFSET 1.032898 3.075478 0.678804
											}
										}
									}
								}
								JOINT RightHandMiddle1
								{
									OFFSET -8.124588 0.000000 0.000000
									CHANNELS 3 Xrotation Yrotation Zrotation
									JOINT RightHandMiddle2
									{
										OFFSET -4.166275 0.000000 0.000000
										CHANNELS 3 Xrotation Yrotation Zrotation
										JOINT RightHandMiddle3
										{
											OFFSET -3.018097 0.000000 0.000000
											CHANNELS 3 Xrotation Yrotation Zrotation
											End Site
											{
												OFFSET 1.032700 2.767937 0.617197
											}
										}
									}
								}
								JOINT RightHandRing1
								{
									OFFSET -8.571747 -0.031349 -2.884061
									CHANNELS 3 Xrotation Yrotation Zrotation
									JOINT RightHandRing2
									{
										OFFSET -3.671204 0.000000 0.000000
										CHANNELS 3 Xrotation Yrotation Zrotation
										JOINT RightHandRing3
										{
											OFFSET -2.728874 0.000000 0.000000
											CHANNELS 3 Xrotation Yrotation Zrotation
											End Site
											{
												OFFSET 0.815804 2.539261 0.577413
											}
										}
									}
								}
								JOINT RightHandPinky1
								{
									OFFSET -7.854561 -0.675247 -5.212970
									CHANNELS 3 Xrotation Yrotation Zrotation
									JOINT RightHandPinky2
									{
										OFFSET -3.068550 0.000000 0.000000
										CHANNELS 3 Xrotation Yrotation Zrotation
										JOINT RightHandPinky3
										{
											OFFSET -2.395981 0.000000 0.000000
											CHANNELS 3 Xrotation Yrotation Zrotation
											End Site
											{
												OFFSET 0.524605 2.267952 0.567413
											}
										}
									}
								}
							}
							JOINT RightSleeve
							{
								OFFSET -19.684753 -0.200165 0.476065
								CHANNELS 3 Xrotation Yrotation Zrotation
								End Site
								{
									OFFSET 0.031342 25.731255 -0.002917
								}
							}
						}
					}
				}
				JOINT Hood
				{
					OFFSET 0.369700 14.447800 -5.317800
					CHANNELS 3 Xrotation Yrotation Zrotation
					JOINT Hood1
					{
						OFFSET 0.001700 -5.553802 -5.895100
						CHANNELS 3 Xrotation Yrotation Zrotation
						JOINT Hood2
						{
							OFFSET -0.000200 -8.380501 0.763600
							CHANNELS 3 Xrotation Yrotation Zrotation
							End Site
							{
								OFFSET 0.000000 8.415215 0.000000
							}
						}
					}
				}
				JOINT Left_Breast
				{
					OFFSET 5.682500 3.120102 3.188800
					CHANNELS 3 Xrotation Yrotation Zrotation
					End Site
					{
						OFFSET 0.000000 10.528564 0.000000
					}
				}
				JOINT Right_Breast
				{
					OFFSET -4.947600 3.120102 3.185900
					CHANNELS 3 Xrotation Yrotation Zrotation
					End Site
					{
						OFFSET 0.000000 10.528564 0.000000
					}
				}
				JOINT Whistle
				{
					OFFSET 0.368200 11.471298 0.095400
					CHANNELS 3 Xrotation Yrotation Zrotation
					JOINT Whistle1
					{
						OFFSET -0.002000 -6.349899 7.479800
						CHANNELS 3 Xrotation Yrotation Zrotation
						JOINT Whistle2
						{
							OFFSET -0.001300 -8.217598 4.717600
							CHANNELS 3 Xrotation Yrotation Zrotation
							End Site
							{
								OFFSET 0.000000 9.475479 0.000000
							}
						}
					}
				}
			}
		}
		JOINT Belly
		{
			OFFSET 0.212400 1.593002 3.163700
			CHANNELS 3 Xrotation Yrotation Zrotation
			End Site
			{
				OFFSET 0.000000 7.496635 0.000000
			}
		}
	}
	JOINT FitGrandmaFacialAnim_Joint
	{
		OFFSET 1.150000 -86.211197 -1.220100
		CHANNELS 3 Xrotation Yrotation Zrotation
		End Site
		{
			OFFSET 0.000000 31.666618 0.000000
		}
	}
}
MOTION
Frames: 4
Frame Time: 0.016667
-1.464976 73.986572 0.611911 -5.398602 -46.174012 -0.123091 0.000000 -0.000000 -0.000000 -29.900963 7.890971 18.569857 60.352303 -7.610520 4.290966 -27.983623 -7.405178 -15.180724 0.000000 0.000002 0.000000 -0.000000 -0.000002 -0.000002 0.000004 -0.000003 0.000001 -20.174236 -12.692039 -28.864591 60.076957 -8.146438 -7.760921 -31.735665 -8.093355 23.747164 0.000000 0.000001 0.000000 0.000000 0.000000 0.000003 0.000005 0.000003 0.000001 9.465705 7.114904 -1.724206 2.187715 0.989895 -0.915630 2.202827 0.982780 -0.894154 0.084654 13.220541 4.538683 8.920924 20.138142 -4.130240 0.000001 0.000000 0.000000 0.000001 0.000000 0.000000 0.000001 0.000000 0.000000 0.000001 0.000000 0.000000 0.000001 0.000000 0.000000 0.000001 0.000000 0.000000 0.000001 0.000000 0.000000 0.000001 0.000000 0.000000 0.000001 0.000000 0.000000 0.000001 0.000000 0.000000 0.000001 0.000000 0.000000 0.000001 0.000000 0.000000 0.000001 0.000000 0.000000 0.000001 0.000000 0.000000 0.000001 0.000000 0.000000 0.000001 0.000000 0.000000 0.000001 0.000000 0.000000 0.000001 0.000000 0.000000 0.000001 0.000000 0.000000 1.117178 3.546341 -8.633309 -53.487027 4.935519 -51.503004 -0.000121 -106.358073 -0.000110 1.988608 -7.706146 -15.869239 -6.141223 -11.690799 -6.761698 9.914111 42.595512 3.409864 0.000001 0.000005 0.000004 0.255312 3.378194 -45.814348 5.654069 5.847727 -88.067455 -0.000001 0.000000 0.000002 -0.461472 3.841587 -39.722686 6.450735 5.820340 -95.892864 0.000001 0.000001 0.000001 0.469721 4.966833 -39.799437 8.181090 5.368651 -113.503011 0.000002 0.000000 0.000000 -3.762440 9.063700 -45.253821 5.342514 5.828982 -85.005304 -0.000001 0.000000 -0.000001 0.000001 0.000002 0.000000 3.036129 13.027195 -5.371407 -48.713705 27.172825 83.457064 0.000126 105.988301 -0.000139 -8.345370 17.548102 8.775657 -7.341094 13.749655 7.412351 9.855738 -44.489089 -3.903282 0.000001 0.000002 0.000001 -0.124383 -2.384769 45.108864 4.500591 -4.654572 88.071137 0.000000 0.000002 0.000002 -0.761629 -2.932899 39.031068 5.133882 -4.632750 95.881649 0.000004 0.000000 -0.000002 0.154759 -4.068823 39.122685 6.509747 -4.273609 113.462891 0.000000 0.000000 0.000003 -4.198872 -8.025537 44.637766 4.252901 -4.639606 85.014825 0.000000 0.000003 -0.000001 0.000000 0.000006 -0.000003 -0.000000 -0.000002 0.000001 -0.000000 -0.000002 0.000001 -0.000000 -0.000002 0.000001 -0.000000 -0.000002 0.000001 -0.000000 -0.000002 0.000001 -0.000000 -0.000002 0.000001 -0.000000 0.000003 -0.000000 -0.000000 0.000003 -0.000000 0.000000 0.000004 0.000000 0.000000 -0.000000 -0.000000 
-1.356343 74.095993 0.485905 -5.727859 -46.352109 -0.134194 -0.000000 -0.000001 -0.000000 -29.436073 8.053987 18.214402 59.862551 -7.329864 4.322592 -27.694061 -7.382710 -15.295491 -0.000000 -0.000001 0.000000 0.000003 0.000003 -0.000002 0.000000 0.000001 -0.000000 -20.176041 -12.496522 -29.082648 60.005479 -8.055205 -7.750935 -31.556434 -7.998222 23.632113 -0.000000 0.000001 0.000000 0.000001 0.000002 0.000002 -0.000002 0.000000 0.000003 9.278440 7.217527 -1.715384 2.640258 1.191270 -1.060358 2.654104 1.184981 -1.039337 0.357709 12.542807 4.092549 8.127882 19.984273 -4.225186 0.000001 0.000000 -0.000000 0.000001 0.000000 -0.000000 0.000001 0.000000 -0.000000 0.000001 0.000000 -0.000000 0.000001 0.000000 -0.000000 0.000001 0.000000 -0.000000 0.000001 0.000000 -0.000000 0.000001 0.000000 -0.000000 0.000001 0.000000 -0.000000 0.000001 0.000000 -0.000000 0.000001 0.000000 -0.000000 0.000001 0.000000 -0.000000 0.000001 0.000000 -0.000000 0.000001 0.000000 -0.000000 0.000001 0.000000 -0.000000 0.000001 0.000000 -0.000000 0.000001 0.000000 -0.000000 0.000001 0.000000 -0.000000 0.000001 0.000000 -0.000000 0.981719 3.207191 -8.086433 -52.083502 4.488243 -52.459685 -0.000029 -105.430766 -0.000015 1.015797 -5.582482 -15.643302 -6.141222 -11.690797 -6.761689 9.914114 42.595512 3.409864 0.000001 0.000001 0.000002 0.255312 3.378194 -45.814341 5.654074 5.847724 -88.067455 -0.000001 -0.000001 0.000004 -0.461469 3.841583 -39.722683 6.450737 5.820338 -95.892857 -0.000001 -0.000001 -0.000000 0.469722 4.966835 -39.799434 8.181094 5.368652 -113.503011 0.000000 -0.000003 -0.000001 -3.762439 9.063700 -45.253818 5.342512 5.828984 -85.005304 -0.000000 -0.000002 0.000001 0.000000 0.000001 -0.000000 3.469383 13.680574 -5.027487 -48.559220 27.223985 81.465715 -0.000004 106.431027 -0.000009 -8.957037 17.278905 9.150931 -7.341097 13.749656 7.412355 9.855738 -44.489093 -3.903282 -0.000000 -0.000000 -0.000001 -0.124383 -2.384770 45.108868 4.500591 -4.654572 88.071143 -0.000002 0.000002 0.000004 -0.761632 -2.932896 39.031065 5.133881 -4.632752 95.881656 -0.000001 0.000000 -0.000003 0.154760 -4.068823 39.122692 6.509749 -4.273608 113.462904 0.000001 -0.000004 0.000002 -4.198872 -8.025541 44.637769 4.252892 -4.639608 85.014832 -0.000004 0.000000 0.000002 0.000002 -0.000002 -0.000001 0.000001 -0.000002 0.000000 0.000001 -0.000002 0.000000 0.000001 -0.000002 0.000000 0.000001 -0.000002 0.000000 0.000001 -0.000002 0.000000 0.000001 -0.000002 0.000001 0.000000 -0.000000 0.000001 0.000000 -0.000000 0.000001 -0.000000 0.000000 -0.000000 -0.000000 -0.000001 -0.000000 
-1.242184 74.204956 0.369380 -5.978173 -46.567574 -0.014212 0.000001 0.000001 0.000000 -28.943179 8.153666 17.736113 59.316382 -6.908514 4.289346 -27.396432 -7.359946 -15.442108 -0.000000 0.000000 -0.000000 -0.000003 -0.000003 0.000001 0.000001 0.000003 -0.000001 -20.248045 -12.184619 -29.363304 59.952716 -7.989207 -7.736033 -31.356244 -7.915181 23.551896 -0.000000 0.000000 0.000001 0.000001 -0.000000 0.000002 0.000002 0.000003 0.000001 9.091952 7.472648 -1.854792 3.124196 1.480135 -1.284677 3.136776 1.474862 -1.263946 0.728168 11.771771 3.506735 6.906009 19.480702 -3.816388 0.000000 0.000000 -0.000000 0.000000 0.000000 -0.000000 0.000000 0.000000 -0.000000 0.000000 0.000000 -0.000000 0.000000 0.000000 -0.000000 0.000000 0.000000 -0.000000 0.000000 0.000000 -0.000000 0.000000 0.000000 -0.000000 0.000000 0.000000 -0.000000 0.000000 0.000000 -0.000000 0.000000 0.000000 -0.000000 0.000000 0.000000 -0.000000 0.000000 0.000000 -0.000000 0.000000 0.000000 -0.000000 0.000000 0.000000 -0.000000 0.000000 0.000000 -0.000000 0.000000 0.000000 -0.000000 0.000000 0.000000 -0.000000 0.000000 0.000000 -0.000000 0.863352 2.875886 -7.567500 -50.820429 3.482937 -53.809774 0.000173 -104.407761 0.000183 -0.646196 -3.189673 -15.370728 -6.141225 -11.690797 -6.761699 9.914112 42.595512 3.409864 0.000001 0.000001 0.000001 0.255312 3.378192 -45.814337 5.654076 5.847730 -88.067462 -0.000002 0.000003 -0.000001 -0.461473 3.841584 -39.722686 6.450739 5.820339 -95.892851 0.000001 0.000003 -0.000001 0.469721 4.966836 -39.799441 8.181097 5.368651 -113.503011 0.000003 -0.000001 0.000002 -3.762440 9.063701 -45.253821 5.342513 5.828985 -85.005304 0.000000 0.000002 0.000001 0.000000 0.000001 -0.000001 3.937033 14.543570 -4.656811 -48.082100 26.964812 78.972491 0.000188 107.157711 -0.000184 -9.547711 17.015683 9.282251 -7.341094 13.749657 7.412353 9.855742 -44.489089 -3.903289 0.000002 -0.000002 -0.000001 -0.124380 -2.384769 45.108861 4.500593 -4.654572 88.071137 -0.000003 -0.000000 0.000005 -0.761629 -2.932902 39.031068 5.133883 -4.632748 95.881649 -0.000001 -0.000001 -0.000002 0.154762 -4.068824 39.122692 6.509750 -4.273603 113.462891 -0.000000 -0.000002 0.000001 -4.198869 -8.025535 44.637769 4.252896 -4.639605 85.014825 -0.000002 -0.000001 0.000000 0.000001 -0.000001 0.000001 0.000000 0.000001 0.000000 0.000000 0.000001 0.000000 0.000000 0.000001 0.000000 0.000000 0.000001 0.000000 0.000000 0.000001 0.000000 0.000000 0.000001 0.000000 -0.000000 0.000002 -0.000001 -0.000000 0.000002 -0.000001 0.000000 -0.000001 0.000000 0.000001 0.000001 0.000000 
-1.130113 74.320915 0.259914 -6.278521 -46.638748 0.375646 0.000000 -0.000002 -0.000000 -28.271669 8.259617 16.860986 58.565990 -6.419472 4.176463 -26.980065 -7.387291 -15.544614 -0.000000 0.000000 0.000000 0.000002 0.000004 0.000001 -0.000004 -0.000000 0.000002 -20.198222 -11.662023 -29.914572 59.968569 -7.909388 -7.691975 -31.171074 -8.107128 23.546674 0.000000 -0.000000 0.000000 0.000002 0.000001 0.000003 0.000003 -0.000001 0.000003 8.801747 8.165244 -2.178546 3.590461 1.988625 -1.614736 3.602248 1.984439 -1.593469 1.274043 10.754605 2.693522 6.275630 17.988041 -3.563896 -0.000000 0.000000 -0.000000 -0.000000 0.000000 -0.000000 -0.000000 0.000000 -0.000000 -0.000000 0.000000 -0.000000 -0.000000 0.000000 -0.000000 -0.000000 0.000000 -0.000000 -0.000000 0.000000 -0.000000 -0.000000 0.000000 -0.000000 -0.000000 0.000000 -0.000000 -0.000000 0.000000 -0.000000 -0.000000 0.000000 -0.000000 -0.000000 0.000000 -0.000000 -0.000000 0.000000 -0.000000 -0.000000 0.000000 -0.000000 -0.000000 0.000000 -0.000000 -0.000000 0.000000 -0.000000 -0.000000 0.000000 -0.000000 -0.000000 0.000000 -0.000000 -0.000000 0.000000 -0.000000 0.788833 2.666425 -7.211885 -49.654635 0.704927 -56.253298 -0.000020 -102.244722 0.000001 -2.418241 -0.428784 -15.025525 -6.141223 -11.690800 -6.761691 9.914112 42.595505 3.409868 -0.000003 0.000003 0.000004 0.255312 3.378197 -45.814341 5.654069 5.847729 -88.067455 -0.000000 0.000001 0.000001 -0.461470 3.841587 -39.722693 6.450738 5.820337 -95.892857 -0.000002 0.000004 0.000005 0.469722 4.966840 -39.799441 8.181089 5.368650 -113.503011 0.000000 0.000003 0.000001 -3.762439 9.063703 -45.253818 5.342514 5.828983 -85.005304 0.000000 0.000000 0.000002 -0.000000 0.000000 -0.000001 4.427752 15.576518 -4.226199 -46.369355 25.864364 75.178314 0.000029 108.408394 -0.000037 -10.196594 16.852059 9.256428 -7.341094 13.749656 7.412348 9.855736 -44.489089 -3.903273 -0.000002 -0.000000 -0.000002 -0.124382 -2.384768 45.108864 4.500594 -4.654572 88.071143 -0.000003 -0.000001 0.000001 -0.761629 -2.932898 39.031068 5.133883 -4.632750 95.881642 0.000000 0.000000 0.000002 0.154760 -4.068823 39.122695 6.509748 -4.273605 113.462891 0.000001 -0.000005 0.000001 -4.198872 -8.025532 44.637769 4.252896 -4.639604 85.014825 -0.000004 -0.000000 -0.000002 -0.000001 -0.000002 0.000004 0.000000 -0.000001 0.000001 0.000000 -0.000001 0.000001 0.000000 -0.000001 0.000001 0.000000 -0.000001 0.000001 0.000000 -0.000001 0.000001 0.000000 -0.000001 0.000001 -0.000000 0.000000 0.000000 -0.000000 0.000000 0.000000 0.000000 -0.000003 -0.000000 0.000000 -0.000002 -0.000000 
